<mxfile host="app.diagrams.net" agent="Mozilla/5.0 (Windows NT 10.0; Win64; x64) AppleWebKit/537.36 (KHTML, like Gecko) Chrome/129.0.0.0 Safari/537.36" version="24.7.14">
  <diagram name="Page-1" id="2YBvvXClWsGukQMizWep">
    <mxGraphModel dx="756" dy="432" grid="1" gridSize="10" guides="1" tooltips="1" connect="1" arrows="1" fold="1" page="1" pageScale="1" pageWidth="3300" pageHeight="4681" math="0" shadow="0">
      <root>
        <mxCell id="0" />
        <mxCell id="1" parent="0" />
        <mxCell id="6rufmN_CIZpMr9qqeIgu-1" value="" style="shape=umlLifeline;perimeter=lifelinePerimeter;whiteSpace=wrap;html=1;container=1;dropTarget=0;collapsible=0;recursiveResize=0;outlineConnect=0;portConstraint=eastwest;newEdgeStyle={&quot;curved&quot;:0,&quot;rounded&quot;:0};participant=umlActor;" vertex="1" parent="1">
          <mxGeometry x="1010" y="880" width="20" height="270" as="geometry" />
        </mxCell>
        <mxCell id="6rufmN_CIZpMr9qqeIgu-3" value="" style="html=1;points=[[0,0,0,0,5],[0,1,0,0,-5],[1,0,0,0,5],[1,1,0,0,-5]];perimeter=orthogonalPerimeter;outlineConnect=0;targetShapes=umlLifeline;portConstraint=eastwest;newEdgeStyle={&quot;curved&quot;:0,&quot;rounded&quot;:0};" vertex="1" parent="6rufmN_CIZpMr9qqeIgu-1">
          <mxGeometry x="5" y="80" width="10" height="160" as="geometry" />
        </mxCell>
        <mxCell id="6rufmN_CIZpMr9qqeIgu-2" value=":Sistema" style="shape=umlLifeline;perimeter=lifelinePerimeter;whiteSpace=wrap;html=1;container=1;dropTarget=0;collapsible=0;recursiveResize=0;outlineConnect=0;portConstraint=eastwest;newEdgeStyle={&quot;curved&quot;:0,&quot;rounded&quot;:0};" vertex="1" parent="1">
          <mxGeometry x="1130" y="880" width="100" height="280" as="geometry" />
        </mxCell>
        <mxCell id="6rufmN_CIZpMr9qqeIgu-7" value="" style="html=1;points=[[0,0,0,0,5],[0,1,0,0,-5],[1,0,0,0,5],[1,1,0,0,-5]];perimeter=orthogonalPerimeter;outlineConnect=0;targetShapes=umlLifeline;portConstraint=eastwest;newEdgeStyle={&quot;curved&quot;:0,&quot;rounded&quot;:0};" vertex="1" parent="6rufmN_CIZpMr9qqeIgu-2">
          <mxGeometry x="45" y="80" width="10" height="160" as="geometry" />
        </mxCell>
        <mxCell id="6rufmN_CIZpMr9qqeIgu-6" value=":B3" style="shape=umlLifeline;perimeter=lifelinePerimeter;whiteSpace=wrap;html=1;container=1;dropTarget=0;collapsible=0;recursiveResize=0;outlineConnect=0;portConstraint=eastwest;newEdgeStyle={&quot;curved&quot;:0,&quot;rounded&quot;:0};" vertex="1" parent="1">
          <mxGeometry x="1290" y="880" width="100" height="280" as="geometry" />
        </mxCell>
        <mxCell id="6rufmN_CIZpMr9qqeIgu-5" value="" style="html=1;points=[[0,0,0,0,5],[0,1,0,0,-5],[1,0,0,0,5],[1,1,0,0,-5]];perimeter=orthogonalPerimeter;outlineConnect=0;targetShapes=umlLifeline;portConstraint=eastwest;newEdgeStyle={&quot;curved&quot;:0,&quot;rounded&quot;:0};" vertex="1" parent="6rufmN_CIZpMr9qqeIgu-6">
          <mxGeometry x="45" y="160" width="10" height="60" as="geometry" />
        </mxCell>
        <mxCell id="6rufmN_CIZpMr9qqeIgu-8" value="UsuÃ¡rio" style="text;html=1;align=center;verticalAlign=middle;whiteSpace=wrap;rounded=0;" vertex="1" parent="1">
          <mxGeometry x="990" y="910" width="60" height="30" as="geometry" />
        </mxCell>
        <mxCell id="6rufmN_CIZpMr9qqeIgu-9" value="" style="endArrow=classic;html=1;rounded=0;exitX=1.103;exitY=0.128;exitDx=0;exitDy=0;exitPerimeter=0;" edge="1" parent="1" source="6rufmN_CIZpMr9qqeIgu-3" target="6rufmN_CIZpMr9qqeIgu-7">
          <mxGeometry width="50" height="50" relative="1" as="geometry">
            <mxPoint x="1030" y="980" as="sourcePoint" />
            <mxPoint x="1170" y="980" as="targetPoint" />
          </mxGeometry>
        </mxCell>
        <mxCell id="6rufmN_CIZpMr9qqeIgu-10" value="consultarInvestimento()" style="text;html=1;align=center;verticalAlign=middle;resizable=0;points=[];autosize=1;strokeColor=none;fillColor=none;" vertex="1" parent="1">
          <mxGeometry x="1020" y="960" width="150" height="30" as="geometry" />
        </mxCell>
        <mxCell id="6rufmN_CIZpMr9qqeIgu-12" value="" style="endArrow=classic;html=1;rounded=0;" edge="1" parent="1" target="6rufmN_CIZpMr9qqeIgu-3">
          <mxGeometry width="50" height="50" relative="1" as="geometry">
            <mxPoint x="1175" y="1010" as="sourcePoint" />
            <mxPoint x="1030" y="1010" as="targetPoint" />
          </mxGeometry>
        </mxCell>
        <mxCell id="6rufmN_CIZpMr9qqeIgu-13" value="listaInvestimento" style="text;html=1;align=center;verticalAlign=middle;resizable=0;points=[];autosize=1;strokeColor=none;fillColor=none;" vertex="1" parent="1">
          <mxGeometry x="1050" y="990" width="110" height="30" as="geometry" />
        </mxCell>
        <mxCell id="6rufmN_CIZpMr9qqeIgu-22" value="" style="endArrow=classic;html=1;rounded=0;exitX=1.103;exitY=0.128;exitDx=0;exitDy=0;exitPerimeter=0;" edge="1" parent="1">
          <mxGeometry width="50" height="50" relative="1" as="geometry">
            <mxPoint x="1026" y="1050" as="sourcePoint" />
            <mxPoint x="1175" y="1050" as="targetPoint" />
          </mxGeometry>
        </mxCell>
        <mxCell id="6rufmN_CIZpMr9qqeIgu-23" value="escolherInvestimento()" style="text;html=1;align=center;verticalAlign=middle;resizable=0;points=[];autosize=1;strokeColor=none;fillColor=none;" vertex="1" parent="1">
          <mxGeometry x="1025" y="1030" width="140" height="30" as="geometry" />
        </mxCell>
        <mxCell id="6rufmN_CIZpMr9qqeIgu-24" value="" style="endArrow=classic;html=1;rounded=0;exitX=1.103;exitY=0.128;exitDx=0;exitDy=0;exitPerimeter=0;" edge="1" parent="1">
          <mxGeometry width="50" height="50" relative="1" as="geometry">
            <mxPoint x="1186" y="1070" as="sourcePoint" />
            <mxPoint x="1335" y="1070" as="targetPoint" />
          </mxGeometry>
        </mxCell>
        <mxCell id="6rufmN_CIZpMr9qqeIgu-25" value="buscarInvestimento()" style="text;html=1;align=center;verticalAlign=middle;resizable=0;points=[];autosize=1;strokeColor=none;fillColor=none;" vertex="1" parent="1">
          <mxGeometry x="1185" y="1050" width="140" height="30" as="geometry" />
        </mxCell>
        <mxCell id="6rufmN_CIZpMr9qqeIgu-27" value="" style="endArrow=classic;html=1;rounded=0;" edge="1" parent="1">
          <mxGeometry width="50" height="50" relative="1" as="geometry">
            <mxPoint x="1335" y="1090" as="sourcePoint" />
            <mxPoint x="1185" y="1090" as="targetPoint" />
          </mxGeometry>
        </mxCell>
        <mxCell id="6rufmN_CIZpMr9qqeIgu-28" value="dadosInvestimento" style="text;html=1;align=center;verticalAlign=middle;resizable=0;points=[];autosize=1;strokeColor=none;fillColor=none;" vertex="1" parent="1">
          <mxGeometry x="1205" y="1070" width="120" height="30" as="geometry" />
        </mxCell>
        <mxCell id="6rufmN_CIZpMr9qqeIgu-29" value="" style="endArrow=classic;html=1;rounded=0;" edge="1" parent="1">
          <mxGeometry width="50" height="50" relative="1" as="geometry">
            <mxPoint x="1175" y="1110" as="sourcePoint" />
            <mxPoint x="1025" y="1110" as="targetPoint" />
          </mxGeometry>
        </mxCell>
        <mxCell id="6rufmN_CIZpMr9qqeIgu-30" value="statusInvestimento" style="text;html=1;align=center;verticalAlign=middle;resizable=0;points=[];autosize=1;strokeColor=none;fillColor=none;" vertex="1" parent="1">
          <mxGeometry x="1045" y="1090" width="120" height="30" as="geometry" />
        </mxCell>
        <mxCell id="6rufmN_CIZpMr9qqeIgu-31" value="" style="shape=umlDestroy;whiteSpace=wrap;html=1;strokeWidth=1;targetShapes=umlLifeline;" vertex="1" parent="1">
          <mxGeometry x="1010" y="1140" width="20" height="20" as="geometry" />
        </mxCell>
      </root>
    </mxGraphModel>
  </diagram>
</mxfile>
